<svg width="24" height="24" viewBox="0 0 24 24" fill="none" xmlns="http://www.w3.org/2000/svg">
<g clip-path="url(#clip0_157_69)">
<path opacity="0.16" d="M12 3L15 6L12 9L9 6L12 3Z" fill="white"/>
<path opacity="0.16" d="M12 15L15 18L12 21L9 18L12 15Z" fill="white"/>
<path opacity="0.16" d="M18 9L21 12L18 15L15 12L18 9Z" fill="#45B085"/>
<path opacity="0.16" d="M6 9L9 12L6 15L3 12L6 9Z" fill="#45B085"/>
<path d="M12 3L15 6L12 9L9 6L12 3Z" fill="#45B085" stroke="white" stroke-width="2" stroke-linejoin="round"/>
<path d="M12 15L15 18L12 21L9 18L12 15Z" fill="#45B085" stroke="white" stroke-width="2" stroke-linejoin="round"/>
<path d="M18 9L21 12L18 15L15 12L18 9Z" stroke="white" stroke-width="2" stroke-linejoin="round"/>
<path d="M6 9L9 12L6 15L3 12L6 9Z" stroke="white" stroke-width="2" stroke-linejoin="round"/>
</g>
<defs>
<clipPath id="clip0_157_69">
<rect width="24" height="24" fill="white"/>
</clipPath>
</defs>
</svg>
