<svg width="24" height="24" viewBox="0 0 24 24" fill="none" xmlns="http://www.w3.org/2000/svg">
<g clip-path="url(#clip0_157_80)">
<path opacity="0.5" fill-rule="evenodd" clip-rule="evenodd" d="M3.40064 9.34415C3.79373 8.07007 4.46885 6.88085 5.39859 5.87876L6.99997 6.80331C8.3333 7.57312 9.99997 6.61087 9.99997 5.07126V3.22214C11.3327 2.91801 12.7001 2.92795 14.0001 3.22455L14.0001 5.07129C14.0001 6.61089 15.6667 7.57314 17.0001 6.80334L18.6011 5.87898C19.0491 6.36306 19.4506 6.90424 19.7943 7.49955C20.1379 8.09484 20.4059 8.71307 20.6011 9.34308L19 10.2675C17.6667 11.0373 17.6667 12.9618 19 13.7316L20.5994 14.655C20.2063 15.929 19.5312 17.1183 18.6015 18.1203L17.0001 17.1958C15.6667 16.426 14.0001 17.3882 14.0001 18.9278V20.777C12.6674 21.0811 11.2999 21.0711 9.99997 20.7745L9.99997 18.9278C9.99997 17.3882 8.3333 16.4259 6.99997 17.1957L5.39892 18.1201C4.95091 17.636 4.54949 17.0948 4.2058 16.4995C3.8621 15.9042 3.59414 15.286 3.39893 14.656L4.99994 13.7316C6.33328 12.9618 6.33328 11.0373 4.99994 10.2675L3.40064 9.34415ZM12 13.9995C13.1046 13.9995 14 13.1041 14 11.9995C14 10.895 13.1046 9.99954 12 9.99954C10.8955 9.99954 10 10.895 10 11.9995C10 13.1041 10.8955 13.9995 12 13.9995Z" fill="#45B085"/>
<circle cx="12" cy="12" r="2" stroke="white" stroke-width="2"/>
<path d="M5.39832 5.87909C4.46858 6.88119 3.79346 8.0704 3.40037 9.34448L4.99967 10.2678C6.33301 11.0376 6.33301 12.9621 4.99967 13.7319L3.39866 14.6563C3.59387 15.2863 3.86183 15.9046 4.20553 16.4999C4.54922 17.0952 4.95064 17.6363 5.39865 18.1204L6.9997 17.196C8.33303 16.4262 9.9997 17.3885 9.9997 18.9281L9.9997 20.7749C11.2996 21.0715 12.6671 21.0814 13.9998 20.7773L13.9998 18.9282C13.9998 17.3886 15.6665 16.4263 16.9998 17.1961L18.6012 18.1207C19.5309 17.1186 20.206 15.9294 20.5991 14.6553L18.9998 13.7319C17.6664 12.9621 17.6664 11.0376 18.9998 10.2678L20.6008 9.34342C20.4056 8.7134 20.1377 8.09517 19.794 7.49989C19.4503 6.90458 19.0488 6.3634 18.6008 5.87932L16.9998 6.80368C15.6665 7.57348 13.9998 6.61123 13.9998 5.07162L13.9998 3.22489C12.6999 2.92828 11.3324 2.91835 9.9997 3.22248L9.9997 5.0716C9.9997 6.6112 8.33303 7.57345 6.9997 6.80365L5.39832 5.87909Z" stroke="white" stroke-width="2" stroke-linejoin="round"/>
</g>
<defs>
<clipPath id="clip0_157_80">
<rect width="24" height="24" fill="white"/>
</clipPath>
</defs>
</svg>
